<svg width="31" height="31" viewBox="0 0 31 31" fill="none" xmlns="http://www.w3.org/2000/svg">
<path fill-rule="evenodd" clip-rule="evenodd" d="M15.1264 6.44502C13.182 5.46558 10.8144 6.32736 9.95445 8.32748L7.05405 15.0737C6.67382 15.9581 6.64543 16.9543 6.97469 17.8589L9.03996 23.5332C9.7225 25.4084 11.7455 26.4298 13.6597 25.8656L18.7289 24.3713L23.5711 22.2582C25.4009 21.4597 26.2939 19.3756 25.61 17.4999L23.5437 11.8334C23.2142 10.9297 22.5525 10.1857 21.6934 9.75298L15.1264 6.44502ZM15.7473 16.5649C15.8063 16.4906 15.9021 16.4557 15.9951 16.4747L18.3123 16.9483C18.3981 16.9659 18.4687 17.0267 18.4986 17.109L19.3942 19.5697C19.537 19.962 19.9707 20.1642 20.363 20.0215C20.7553 19.8787 20.9575 19.445 20.8147 19.0527L19.9191 16.592C19.7094 16.0159 19.2156 15.5901 18.615 15.4673L16.2978 14.9937C15.6469 14.8607 14.9765 15.1047 14.5634 15.6249L13.0927 17.4773C12.7115 17.9574 12.607 18.601 12.8167 19.1771L13.7123 21.6378C13.8551 22.03 14.2888 22.2323 14.6811 22.0895C15.0733 21.9467 15.2756 21.513 15.1328 21.1208L14.2372 18.66C14.2072 18.5778 14.2221 18.4858 14.2766 18.4172L15.7473 16.5649Z" fill="#E0B420"/>
</svg>
