<svg width="16" height="12" viewBox="0 0 16 12" fill="none" xmlns="http://www.w3.org/2000/svg">
<path d="M2.09399 10.4333L0.91706 7.19971C0.548691 6.18763 0.791231 5.0515 1.60998 4.35174C2.71443 3.40782 4.66145 2.04951 6.27773 1.46123C7.92808 0.860552 9.97711 0.792103 11.5972 0.750844C12.7306 0.721977 13.7231 1.45055 14.1109 2.516L15.2498 5.64497" stroke="#3E4554" stroke-width="1.5" stroke-linecap="round"/>
<path d="M2.09399 10.4333L0.91706 7.19971C0.548691 6.18763 0.791231 5.0515 1.60998 4.35174C2.71443 3.40782 4.66145 2.04951 6.27773 1.46123C7.92808 0.860552 9.97711 0.792103 11.5972 0.750844C12.7306 0.721977 13.7231 1.45055 14.1109 2.516L15.2498 5.64497" stroke="black" stroke-opacity="0.2" stroke-width="1.5" stroke-linecap="round"/>
</svg>
