<svg width="31" height="31" viewBox="0 0 31 31" fill="none" xmlns="http://www.w3.org/2000/svg">
<path d="M16.6176 9.73101C17.1887 11.3 16.3797 13.0349 14.8106 13.606C13.2416 14.1771 11.5067 13.3681 10.9356 11.7991C10.3646 10.23 11.1736 8.49515 12.7426 7.92407C14.3116 7.35299 16.0465 8.16199 16.6176 9.73101Z" stroke="#3E4554" stroke-width="1.5"/>
<path d="M16.6176 9.73101C17.1887 11.3 16.3797 13.0349 14.8106 13.606C13.2416 14.1771 11.5067 13.3681 10.9356 11.7991C10.3646 10.23 11.1736 8.49515 12.7426 7.92407C14.3116 7.35299 16.0465 8.16199 16.6176 9.73101Z" stroke="black" stroke-opacity="0.2" stroke-width="1.5"/>
<path d="M11.6285 25.4887L10.4424 22.23C10.0712 21.2101 10.3156 20.0651 11.1407 19.3599C12.2537 18.4087 14.2159 17.0398 15.8447 16.447C17.5078 15.8416 19.5727 15.7727 21.2054 15.7311C22.3476 15.702 23.3478 16.4362 23.7386 17.5099L24.8863 20.6632" stroke="#3E4554" stroke-width="1.5" stroke-linecap="round"/>
<path d="M11.6285 25.4887L10.4424 22.23C10.0712 21.2101 10.3156 20.0651 11.1407 19.3599C12.2537 18.4087 14.2159 17.0398 15.8447 16.447C17.5078 15.8416 19.5727 15.7727 21.2054 15.7311C22.3476 15.702 23.3478 16.4362 23.7386 17.5099L24.8863 20.6632" stroke="black" stroke-opacity="0.2" stroke-width="1.5" stroke-linecap="round"/>
</svg>
