<svg width="19" height="19" viewBox="0 0 19 19" fill="none" xmlns="http://www.w3.org/2000/svg">
<path d="M13.9981 10.9079C13.8196 11.107 13.7504 11.3817 13.8126 11.642L14.7259 15.235C14.803 15.5396 14.6948 15.8609 14.4492 16.0573C14.2092 16.26 13.8742 16.3058 13.5879 16.1773L10.1918 14.6988C10.0736 14.6462 9.94481 14.6225 9.8151 14.6279L9.61465 14.642C9.54585 14.6572 9.47936 14.6842 9.41961 14.7226L6.26346 16.6697C6.10718 16.7624 5.92577 16.8041 5.744 16.7879C5.30029 16.7358 4.9788 16.3392 5.01962 15.894L5.4222 12.2085C5.44718 11.9399 5.34019 11.6761 5.13536 11.501L2.28244 9.09977C2.04382 8.89874 1.94329 8.57874 2.02473 8.27791C2.10326 7.97803 2.34121 7.74649 2.64332 7.67694L6.28207 6.8853C6.55965 6.8368 6.79327 6.64942 6.90134 6.38909L8.28786 2.95408C8.32113 2.87741 8.36591 2.80587 8.42177 2.74397L8.4847 2.68751C8.51676 2.64661 8.55447 2.61199 8.59703 2.58298L8.67558 2.54773L8.79769 2.48712L9.10909 2.46523C9.38924 2.47454 9.64577 2.62376 9.7912 2.8633L11.6649 6.05435C11.8002 6.28791 12.0421 6.43965 12.3105 6.46167L16.0242 6.73666C16.338 6.75921 16.6127 6.95547 16.7363 7.24412C16.854 7.53392 16.7933 7.86526 16.5805 8.09503L13.9981 10.9079Z" fill="#F9B023"/>
</svg>
