<svg width="18" height="15" viewBox="0 0 18 15" fill="none" xmlns="http://www.w3.org/2000/svg">
<path d="M17.6174 11.5605L14.1523 9.99205L14.0593 9.92275C13.9075 9.85241 13.7325 9.84537 13.5736 9.90323C13.4146 9.96108 13.2851 10.079 13.214 10.2304C11.7673 13.0135 8.46005 14.3399 5.48555 13.33C2.51104 12.32 0.792335 9.28708 1.46926 6.24261C2.14619 3.19814 5.0087 1.08685 8.15839 1.30893C11.3081 1.53101 13.7676 4.01755 13.9057 7.1195C13.9159 7.34352 14.047 7.54345 14.2496 7.64398C14.4523 7.74451 14.6956 7.73037 14.8881 7.60688C15.0805 7.48339 15.1928 7.26931 15.1826 7.04529C15.0263 3.36142 12.1528 0.381665 8.42108 0.0336267C4.68933 -0.314411 1.21923 2.07372 0.255583 5.65313C-0.708063 9.23255 1.12394 12.929 4.56647 14.3514C8.00901 15.7737 12.0289 14.4949 14.0258 11.3424L17.0938 12.7312C17.4104 12.8736 17.7882 12.7361 17.9391 12.4235C18.0886 12.1078 17.9534 11.7364 17.6359 11.5906L17.6174 11.5605Z" fill="#F8F9FB"/>
</svg>
