<svg width="14" height="15" viewBox="0 0 14 15" fill="none" xmlns="http://www.w3.org/2000/svg">
<path d="M10.099 9.58365C9.86047 9.69036 9.6895 9.90801 9.64146 10.165L9.02754 13.7349C8.97527 14.0374 8.75087 14.2811 8.45355 14.3587C8.15876 14.4442 7.84155 14.3518 7.63716 14.1232L5.19422 11.4531C5.1097 11.3591 5.00418 11.2867 4.88627 11.24L4.70177 11.1728C4.63431 11.1591 4.56424 11.1567 4.49565 11.1672L0.904475 11.6496C0.728117 11.6702 0.549609 11.6353 0.393834 11.5486C0.0185416 11.3256 -0.110624 10.8438 0.102856 10.4627L1.92795 7.33361C2.05708 7.10382 2.06651 6.82583 1.95337 6.58804L0.362219 3.31037C0.229216 3.03605 0.266761 2.71047 0.45909 2.47438C0.648448 2.23798 0.952902 2.12597 1.25019 2.18406L4.81253 2.92475C5.07954 2.99186 5.36257 2.91754 5.56256 2.72819L8.16617 0.213985C8.22635 0.158789 8.29477 0.112756 8.36924 0.0797234L8.44786 0.0543677C8.49274 0.0306115 8.54016 0.0147174 8.58969 0.00575652L8.67381 0.00553388L8.80689 2.22325e-06L9.09352 0.104325C9.33984 0.224049 9.50944 0.459255 9.54396 0.73088L9.94704 4.32401C9.97494 4.58629 10.1304 4.8179 10.3612 4.9443L13.5662 6.66673C13.8373 6.81166 14.0044 7.09607 13.9999 7.40285C13.9897 7.70832 13.8038 7.97988 13.5225 8.10031L10.099 9.58365Z" fill="#F9B023"/>
</svg>
