<svg width="15" height="14" viewBox="0 0 15 14" fill="none" xmlns="http://www.w3.org/2000/svg">
<path d="M11.7281 8.25049C11.5537 8.44508 11.4861 8.71352 11.5468 8.96785L12.4393 12.4791C12.5147 12.7767 12.409 13.0907 12.1689 13.2826C11.9344 13.4807 11.607 13.5255 11.3273 13.3999L8.00843 11.9551C7.89295 11.9036 7.76711 11.8805 7.64036 11.8858L7.44446 11.8996C7.37723 11.9144 7.31225 11.9408 7.25387 11.9783L4.16956 13.8811C4.01684 13.9717 3.83956 14.0125 3.66192 13.9966C3.22831 13.9458 2.91414 13.5581 2.95403 13.1231L3.34745 9.52151C3.37186 9.25901 3.2673 9.00122 3.06713 8.83005L0.279156 6.48351C0.0459733 6.28705 -0.0522753 5.97433 0.0273118 5.68036C0.104058 5.3873 0.336592 5.16103 0.631826 5.09306L4.18775 4.31944C4.459 4.27205 4.6873 4.08893 4.79292 3.83453L6.14788 0.477709C6.18039 0.402783 6.22415 0.332878 6.27873 0.272381L6.34023 0.217211C6.37157 0.177235 6.40842 0.14341 6.45001 0.115063L6.52677 0.0806121L6.6461 0.0213777L6.95041 -6.92112e-06C7.22419 0.00908517 7.47488 0.154912 7.617 0.389001L9.44804 3.50741C9.58031 3.73565 9.81665 3.88394 10.0789 3.90546L13.7081 4.17418C14.0148 4.19622 14.2832 4.38802 14.404 4.67009C14.5191 4.9533 14.4597 5.27709 14.2518 5.50164L11.7281 8.25049Z" fill="#F9B023"/>
</svg>
