<svg width="21" height="21" viewBox="0 0 21 21" fill="none" xmlns="http://www.w3.org/2000/svg">
<path fill-rule="evenodd" clip-rule="evenodd" d="M2.42613 14.0413C0.192478 11.1575 0.0564087 6.98174 3.0816 4.63039C4.67254 3.39254 6.78714 3.01133 8.69614 3.59326C9.71492 1.98101 11.643 0.859922 13.654 0.782342C17.4829 0.639022 20.0706 3.92248 20.2141 7.56697C20.4701 13.3334 14.6544 19.9635 14.6544 19.9635C14.6544 19.9635 6.0132 18.6637 2.42613 14.0413Z" stroke="#3E4554" stroke-width="1.5" stroke-linecap="round" stroke-linejoin="round"/>
<path fill-rule="evenodd" clip-rule="evenodd" d="M2.42613 14.0413C0.192478 11.1575 0.0564087 6.98174 3.0816 4.63039C4.67254 3.39254 6.78714 3.01133 8.69614 3.59326C9.71492 1.98101 11.643 0.859922 13.654 0.782342C17.4829 0.639022 20.0706 3.92248 20.2141 7.56697C20.4701 13.3334 14.6544 19.9635 14.6544 19.9635C14.6544 19.9635 6.0132 18.6637 2.42613 14.0413Z" stroke="black" stroke-opacity="0.2" stroke-width="1.5" stroke-linecap="round" stroke-linejoin="round"/>
</svg>
