<svg width="26" height="26" viewBox="0 0 26 26" fill="none" xmlns="http://www.w3.org/2000/svg">
<path fill-rule="evenodd" clip-rule="evenodd" d="M3.73196 13.2427C2.40759 9.92813 3.40454 5.9632 6.88388 4.56621C8.71399 3.83034 10.806 4.04139 12.445 5.10312C13.8378 3.86089 15.9536 3.32568 17.8663 3.79447C21.5068 4.69114 23.0566 8.47711 22.2098 11.9442C20.8971 17.4378 13.64 22.1082 13.64 22.1082C13.64 22.1082 5.86113 18.5575 3.73196 13.2427Z" stroke="#3E4554" stroke-width="1.50312" stroke-linecap="round" stroke-linejoin="round"/>
<path fill-rule="evenodd" clip-rule="evenodd" d="M3.73196 13.2427C2.40759 9.92813 3.40454 5.9632 6.88388 4.56621C8.71399 3.83034 10.806 4.04139 12.445 5.10312C13.8378 3.86089 15.9536 3.32568 17.8663 3.79447C21.5068 4.69114 23.0566 8.47711 22.2098 11.9442C20.8971 17.4378 13.64 22.1082 13.64 22.1082C13.64 22.1082 5.86113 18.5575 3.73196 13.2427Z" stroke="black" stroke-opacity="0.2" stroke-width="1.50312" stroke-linecap="round" stroke-linejoin="round"/>
<g opacity="0.4">
<path d="M16.6716 7.35083C17.7793 7.62494 18.6125 8.53783 18.7843 9.66604" stroke="#3E4554" stroke-width="1.50312" stroke-linecap="round" stroke-linejoin="round"/>
<path d="M16.6716 7.35083C17.7793 7.62494 18.6125 8.53783 18.7843 9.66604" stroke="black" stroke-opacity="0.2" stroke-width="1.50312" stroke-linecap="round" stroke-linejoin="round"/>
</g>
</svg>
