<svg width="19" height="20" viewBox="0 0 19 20" fill="none" xmlns="http://www.w3.org/2000/svg">
<path fill-rule="evenodd" clip-rule="evenodd" d="M8.33899 0.403134C6.40405 -0.571549 4.04785 0.286039 3.19212 2.27645L0.305802 8.98992C-0.0725822 9.87002 -0.100829 10.8614 0.226826 11.7616L2.28207 17.4083C2.9613 19.2745 4.97446 20.2909 6.87936 19.7294L11.924 18.2424L16.7426 16.1396C18.5636 15.3449 19.4523 13.2709 18.7716 11.4043L16.7154 5.76538C16.3875 4.86607 15.729 4.12566 14.8741 3.69503L8.33899 0.403134ZM8.95684 10.4739C9.01557 10.3999 9.11087 10.3652 9.2034 10.3841L11.5094 10.8555C11.5948 10.8729 11.665 10.9334 11.6948 11.0153L12.5861 13.4641C12.7282 13.8545 13.1598 14.0557 13.5501 13.9137C13.9405 13.7716 14.1418 13.34 13.9997 12.9496L13.1084 10.5008C12.8997 9.92757 12.4084 9.50378 11.8107 9.38161L9.50464 8.91029C8.85693 8.77791 8.18979 9.02073 7.77872 9.53848L6.31516 11.3818C5.93582 11.8596 5.8318 12.5001 6.04045 13.0734L6.93173 15.5221C7.07381 15.9125 7.50543 16.1137 7.89578 15.9717C8.28613 15.8296 8.4874 15.398 8.34532 15.0076L7.45404 12.5589C7.42424 12.477 7.4391 12.3855 7.49329 12.3172L8.95684 10.4739Z" fill="#E0B420"/>
</svg>
