<svg width="15" height="13" viewBox="0 0 15 13" fill="none" xmlns="http://www.w3.org/2000/svg">
<path d="M14.6407 8.64042L11.7052 7.63742L11.6243 7.58843C11.4956 7.54316 11.353 7.5511 11.2285 7.61047C11.1039 7.66984 11.0079 7.77565 10.9621 7.90412C10.0048 10.2764 7.42329 11.6112 4.92972 11.0233C2.43615 10.4355 0.804257 8.10736 1.1163 5.58298C1.42834 3.05859 3.58749 1.12127 6.16181 1.05585C8.73613 0.990421 10.9268 2.81719 11.281 5.32465C11.3067 5.50572 11.4287 5.6578 11.6011 5.72361C11.7734 5.78941 11.9699 5.75895 12.1165 5.64368C12.2631 5.52842 12.3375 5.34587 12.3118 5.16479C11.8975 2.18633 9.33226 -0.00854692 6.27558 3.02621e-05C3.2189 0.00860697 0.588087 2.21806 0.0850137 5.1991C-0.41806 8.18014 1.35758 11.0381 4.26328 11.9242C7.16897 12.8103 10.3327 11.4586 11.7078 8.74355L14.3069 9.63162C14.575 9.72256 14.871 9.58145 14.9691 9.31593C15.0658 9.04799 14.9271 8.75698 14.658 8.66343L14.6407 8.64042Z" fill="#F8F9FB"/>
</svg>
