<svg width="24" height="24" viewBox="0 0 24 24" fill="none" xmlns="http://www.w3.org/2000/svg">
<path d="M21.449 15.7067L18.032 14.16L17.9403 14.0917C17.7907 14.0223 17.6181 14.0154 17.4613 14.0725C17.3046 14.1295 17.1768 14.2458 17.1068 14.3951C15.6802 17.1395 12.4189 18.4474 9.48579 17.4515C6.55265 16.4556 4.85784 13.4649 5.52536 10.4627C6.19287 7.46061 9.01558 5.37868 12.1215 5.59767C15.2273 5.81666 17.6526 8.26863 17.7889 11.3274C17.7989 11.5483 17.9282 11.7455 18.128 11.8446C18.3278 11.9438 18.5678 11.9298 18.7576 11.808C18.9473 11.6863 19.0581 11.4752 19.048 11.2543C18.8939 7.62162 16.0603 4.6833 12.3805 4.3401C8.70064 3.9969 5.2788 6.35182 4.32855 9.88146C3.37831 13.4111 5.18484 17.0562 8.5795 18.4587C11.9742 19.8613 15.9382 18.6003 17.9073 15.4916L20.9327 16.8611C21.2448 17.0015 21.6173 16.8659 21.7661 16.5577C21.9135 16.2464 21.7802 15.8801 21.4672 15.7364L21.449 15.7067Z" fill="#F8F9FB"/>
</svg>
