<svg width="31" height="31" viewBox="0 0 31 31" fill="none" xmlns="http://www.w3.org/2000/svg">
<path fill-rule="evenodd" clip-rule="evenodd" d="M22.1873 7.35395C22.8865 9.27502 21.8956 11.4001 19.9746 12.0993C18.0535 12.7985 15.9293 11.8072 15.2301 9.88619C14.5309 7.96512 15.5209 5.84038 17.442 5.14117C19.3631 4.44196 21.4881 5.43289 22.1873 7.35395Z" stroke="#3E4554" stroke-width="1.5" stroke-linecap="round" stroke-linejoin="round"/>
<path fill-rule="evenodd" clip-rule="evenodd" d="M22.1873 7.35395C22.8865 9.27502 21.8956 11.4001 19.9746 12.0993C18.0535 12.7985 15.9293 11.8072 15.2301 9.88619C14.5309 7.96512 15.5209 5.84038 17.442 5.14117C19.3631 4.44196 21.4881 5.43289 22.1873 7.35395Z" stroke="black" stroke-opacity="0.2" stroke-width="1.5" stroke-linecap="round" stroke-linejoin="round"/>
<path fill-rule="evenodd" clip-rule="evenodd" d="M12.0985 11.026C12.7977 12.9471 11.8076 15.0718 9.8857 15.7713C7.96549 16.4702 5.84044 15.4793 5.14123 13.5583C4.44202 11.6372 5.43294 9.51214 7.35315 8.81324C9.27507 8.11372 11.3993 9.10495 12.0985 11.026Z" stroke="#3E4554" stroke-width="1.5" stroke-linecap="round" stroke-linejoin="round"/>
<path fill-rule="evenodd" clip-rule="evenodd" d="M12.0985 11.026C12.7977 12.9471 11.8076 15.0718 9.8857 15.7713C7.96549 16.4702 5.84044 15.4793 5.14123 13.5583C4.44202 11.6372 5.43294 9.51214 7.35315 8.81324C9.27507 8.11372 11.3993 9.10495 12.0985 11.026Z" stroke="black" stroke-opacity="0.2" stroke-width="1.5" stroke-linecap="round" stroke-linejoin="round"/>
<path fill-rule="evenodd" clip-rule="evenodd" d="M25.8369 17.3808C26.5361 19.3019 25.5449 21.4261 23.6238 22.1253C21.7028 22.8245 19.5789 21.8341 18.8797 19.913C18.1805 17.992 19.1705 15.8672 21.0916 15.168C23.0127 14.4688 25.1377 15.4597 25.8369 17.3808Z" stroke="#3E4554" stroke-width="1.5" stroke-linecap="round" stroke-linejoin="round"/>
<path fill-rule="evenodd" clip-rule="evenodd" d="M25.8369 17.3808C26.5361 19.3019 25.5449 21.4261 23.6238 22.1253C21.7028 22.8245 19.5789 21.8341 18.8797 19.913C18.1805 17.992 19.1705 15.8672 21.0916 15.168C23.0127 14.4688 25.1377 15.4597 25.8369 17.3808Z" stroke="black" stroke-opacity="0.2" stroke-width="1.5" stroke-linecap="round" stroke-linejoin="round"/>
<path fill-rule="evenodd" clip-rule="evenodd" d="M15.7479 21.0529C16.4472 22.9739 15.4568 25.0978 13.5348 25.7973C11.6146 26.4962 9.4899 25.5062 8.79069 23.5851C8.09148 21.664 9.0824 19.539 11.0026 18.8401C12.9245 18.1406 15.0487 19.1318 15.7479 21.0529Z" stroke="#3E4554" stroke-width="1.5" stroke-linecap="round" stroke-linejoin="round"/>
<path fill-rule="evenodd" clip-rule="evenodd" d="M15.7479 21.0529C16.4472 22.9739 15.4568 25.0978 13.5348 25.7973C11.6146 26.4962 9.4899 25.5062 8.79069 23.5851C8.09148 21.664 9.0824 19.539 11.0026 18.8401C12.9245 18.1406 15.0487 19.1318 15.7479 21.0529Z" stroke="black" stroke-opacity="0.2" stroke-width="1.5" stroke-linecap="round" stroke-linejoin="round"/>
</svg>
