<svg width="21" height="20" viewBox="0 0 21 20" fill="none" xmlns="http://www.w3.org/2000/svg">
<path fill-rule="evenodd" clip-rule="evenodd" d="M1.31999 10.3754C-0.00412762 7.06144 0.992634 3.09728 4.4713 1.70056C6.30106 0.964826 8.39262 1.17584 10.0314 2.23736C11.4238 0.995375 13.5392 0.460261 15.4516 0.928963C19.0914 1.82546 20.6409 5.6107 19.7942 9.07717C18.4818 14.5697 11.2261 19.2391 11.2261 19.2391C11.2261 19.2391 3.44875 15.6891 1.31999 10.3754Z" stroke="#3E4554" stroke-width="1.50312" stroke-linecap="round" stroke-linejoin="round"/>
<path fill-rule="evenodd" clip-rule="evenodd" d="M1.31999 10.3754C-0.00412762 7.06144 0.992634 3.09728 4.4713 1.70056C6.30106 0.964826 8.39262 1.17584 10.0314 2.23736C11.4238 0.995375 13.5392 0.460261 15.4516 0.928963C19.0914 1.82546 20.6409 5.6107 19.7942 9.07717C18.4818 14.5697 11.2261 19.2391 11.2261 19.2391C11.2261 19.2391 3.44875 15.6891 1.31999 10.3754Z" stroke="black" stroke-opacity="0.2" stroke-width="1.50312" stroke-linecap="round" stroke-linejoin="round"/>
</svg>
