<svg width="31" height="31" viewBox="0 0 31 31" fill="none" xmlns="http://www.w3.org/2000/svg">
<path fill-rule="evenodd" clip-rule="evenodd" d="M6.71731 18.2659C4.54652 15.4633 4.41428 11.405 7.35433 9.11986C8.90049 7.91685 10.9556 7.54637 12.8108 8.11192C13.8009 6.54505 15.6747 5.45552 17.6292 5.38012C21.3503 5.24083 23.8651 8.43188 24.0046 11.9738C24.2534 17.5779 18.6014 24.0214 18.6014 24.0214C18.6014 24.0214 10.2034 22.7582 6.71731 18.2659Z" stroke="#3E4554" stroke-width="1.5" stroke-linecap="round" stroke-linejoin="round"/>
<path fill-rule="evenodd" clip-rule="evenodd" d="M6.71731 18.2659C4.54652 15.4633 4.41428 11.405 7.35433 9.11986C8.90049 7.91685 10.9556 7.54637 12.8108 8.11192C13.8009 6.54505 15.6747 5.45552 17.6292 5.38012C21.3503 5.24083 23.8651 8.43188 24.0046 11.9738C24.2534 17.5779 18.6014 24.0214 18.6014 24.0214C18.6014 24.0214 10.2034 22.7582 6.71731 18.2659Z" stroke="black" stroke-opacity="0.2" stroke-width="1.5" stroke-linecap="round" stroke-linejoin="round"/>
<g opacity="0.4">
<path d="M17.4612 9.10223C18.5938 9.06109 19.6388 9.70489 20.1114 10.7351" stroke="#3E4554" stroke-width="1.5" stroke-linecap="round" stroke-linejoin="round"/>
<path d="M17.4612 9.10223C18.5938 9.06109 19.6388 9.70489 20.1114 10.7351" stroke="black" stroke-opacity="0.2" stroke-width="1.5" stroke-linecap="round" stroke-linejoin="round"/>
</g>
</svg>
