<svg width="21" height="21" viewBox="0 0 21 21" fill="none" xmlns="http://www.w3.org/2000/svg">
<path d="M18.7117 12.8438L15.7257 11.8235L15.6433 11.7737C15.5125 11.7276 15.3674 11.7357 15.2407 11.7961C15.114 11.8565 15.0164 11.9641 14.9697 12.0948C13.9959 14.508 11.3699 15.8658 8.83332 15.2678C6.29675 14.6698 4.63672 12.3015 4.95414 9.73363C5.27156 7.1657 7.46795 5.19498 10.0867 5.12843C12.7054 5.06187 14.9338 6.92015 15.2941 9.47085C15.3203 9.65504 15.4444 9.80974 15.6197 9.87668C15.795 9.94363 15.9949 9.91263 16.144 9.79538C16.2931 9.67813 16.3689 9.49243 16.3427 9.30823C15.9212 6.27841 13.3118 4.04568 10.2024 4.0544C7.093 4.06313 4.41682 6.31069 3.90507 9.34313C3.39332 12.3756 5.19958 15.2829 8.15539 16.1842C11.1112 17.0856 14.3295 15.7106 15.7283 12.9487L18.3722 13.8521C18.6449 13.9446 18.946 13.8011 19.0458 13.531C19.1442 13.2584 19.0031 12.9624 18.7294 12.8672L18.7117 12.8438Z" fill="#F8F9FB"/>
</svg>
