<svg width="64" height="64" viewBox="0 0 64 64" fill="none" xmlns="http://www.w3.org/2000/svg">
<path d="M36.8044 30.9421C34.2971 30.9421 32.2645 32.9747 32.2645 35.4821C32.2645 37.9894 34.2971 40.022 36.8044 40.022H41.4748C47.3465 40.022 51.6875 45.9087 47.1578 49.6448C43.6993 52.4973 38.8906 54.1267 32.9697 54.1267C26.1818 54.1267 20.6281 52.011 16.3967 47.8678C12.2534 43.7245 10.1377 38.4353 10.1377 32.0881C10.1377 25.741 12.2534 20.4518 16.3967 16.2204C20.5399 11.989 25.9173 9.87328 32.3526 9.87328C38.3849 9.87328 43.7693 12.0666 47.456 15.666C49.4395 17.6025 52.4829 18.5239 54.8852 17.1407C57.2804 15.7616 58.1119 12.6542 56.3046 10.5631C50.6514 4.0222 42.028 0 32.3526 0C23.1846 0 15.5151 3.0854 9.2562 9.34435C3.0854 15.5152 0 23.0964 0 32C0 40.9917 3.0854 48.573 9.2562 54.7438C15.5151 60.9146 23.3609 64 32.8815 64C41.8733 64 49.1901 61.3554 54.7438 55.978C60.2975 50.6005 63.1184 43.6364 63.1184 35.1735C63.1184 32.8366 61.224 30.9421 58.887 30.9421H36.8044Z" fill="white"/>
</svg>
