<svg width="15" height="14" viewBox="0 0 15 14" fill="none" xmlns="http://www.w3.org/2000/svg">
<path d="M11.7289 8.70886C11.538 8.89379 11.4504 9.16124 11.4938 9.42354L12.1488 13.0485C12.2041 13.3558 12.0744 13.6667 11.8173 13.8443C11.5653 14.0285 11.2301 14.0506 10.9552 13.9032L7.69199 12.2012C7.57853 12.1408 7.45254 12.1084 7.3236 12.1047H7.12393C7.05467 12.115 6.98689 12.1371 6.925 12.171L3.66102 13.8811C3.49966 13.9622 3.31694 13.9909 3.1379 13.9622C2.70172 13.8796 2.41068 13.4641 2.48215 13.0257L3.1379 9.4007C3.18137 9.13619 3.09369 8.86726 2.90286 8.67938L0.242312 6.10062C0.0198018 5.88474 -0.0575611 5.56055 0.0441159 5.26805C0.142846 4.97628 0.394828 4.76335 0.699122 4.71545L4.36097 4.18423C4.63947 4.15549 4.88409 3.98603 5.00934 3.73552L6.62291 0.427338C6.66122 0.353659 6.71059 0.285874 6.77027 0.228405L6.83658 0.17683C6.87121 0.138516 6.911 0.106835 6.9552 0.0810469L7.03551 0.0515753L7.16077 0H7.47096C7.74799 0.0287348 7.99187 0.194513 8.11933 0.442074L9.75427 3.73552C9.87216 3.97645 10.1013 4.14371 10.3658 4.18423L14.0277 4.71545C14.3371 4.75966 14.5957 4.97333 14.6981 5.26805C14.7946 5.5635 14.7114 5.88769 14.4845 6.10062L11.7289 8.70886Z" fill="#F9B023"/>
</svg>
