<svg width="17" height="17" viewBox="0 0 17 17" fill="none" xmlns="http://www.w3.org/2000/svg">
<path d="M12.6924 10.1435C12.5089 10.3213 12.4246 10.5784 12.4664 10.8306L13.0961 14.3156C13.1492 14.6109 13.0246 14.9099 12.7774 15.0806C12.5351 15.2577 12.2128 15.2789 11.9486 15.1372L8.8114 13.501C8.70232 13.4429 8.58119 13.4117 8.45723 13.4082H8.26527C8.19869 13.4181 8.13352 13.4394 8.07402 13.4719L4.93609 15.116C4.78097 15.1939 4.6053 15.2215 4.43318 15.1939C4.01384 15.1146 3.73405 14.7151 3.80276 14.2936L4.43318 10.8086C4.47497 10.5543 4.39068 10.2958 4.20722 10.1151L1.64942 7.63597C1.4355 7.42842 1.36112 7.11676 1.45887 6.83555C1.55379 6.55505 1.79604 6.35034 2.08858 6.30429L5.60901 5.79358C5.87676 5.76596 6.11193 5.60304 6.23235 5.36221L7.7836 2.18178C7.82044 2.11095 7.8679 2.04578 7.92527 1.99053L7.98902 1.94095C8.02231 1.90411 8.06056 1.87365 8.10306 1.84886L8.18027 1.82053L8.30069 1.77095H8.5989C8.86523 1.79857 9.09969 1.95795 9.22223 2.19595L10.794 5.36221C10.9074 5.59383 11.1277 5.75463 11.382 5.79358L14.9024 6.30429C15.1999 6.34679 15.4485 6.55221 15.547 6.83555C15.6398 7.11959 15.5597 7.43126 15.3415 7.63597L12.6924 10.1435Z" fill="#F9B023"/>
</svg>
