<svg width="22" height="22" viewBox="0 0 22 22" fill="none" xmlns="http://www.w3.org/2000/svg">
<path d="M14.4101 14.007C14.1746 14.1123 14.0058 14.3271 13.9584 14.5808L13.3524 18.1048C13.3008 18.4034 13.0793 18.644 12.7858 18.7206C12.4948 18.8049 12.1817 18.7138 11.9799 18.4881L9.56842 15.8523C9.48498 15.7595 9.38082 15.6881 9.26443 15.642L9.0823 15.5757C9.01571 15.5621 8.94654 15.5597 8.87884 15.5701L5.33388 16.0463C5.1598 16.0667 4.98359 16.0322 4.82982 15.9466C4.45935 15.7265 4.33185 15.2509 4.54258 14.8747L6.34419 11.7859C6.47166 11.5591 6.48096 11.2846 6.36928 11.0499L4.79861 7.81443C4.66732 7.54365 4.70438 7.22226 4.89423 6.98921C5.08115 6.75585 5.38169 6.64528 5.67515 6.70262L9.19164 7.43377C9.45521 7.50003 9.7346 7.42666 9.93201 7.23975L12.5021 4.7579C12.5615 4.70342 12.6291 4.65798 12.7026 4.62537L12.7802 4.60034C12.8245 4.57689 12.8713 4.5612 12.9202 4.55235L13.0032 4.55213L13.1346 4.54667L13.4175 4.64965C13.6607 4.76784 13.8281 5.00002 13.8622 5.26814L14.2601 8.81503C14.2876 9.07393 14.4411 9.30256 14.6689 9.42734L17.8327 11.1276C18.1003 11.2707 18.2652 11.5514 18.2608 11.8542C18.2507 12.1558 18.0672 12.4238 17.7895 12.5427L14.4101 14.007Z" fill="#F9B023"/>
</svg>
