<svg width="9" height="12" viewBox="0 0 9 12" fill="none" xmlns="http://www.w3.org/2000/svg">
<path d="M4.92528 11.2424C4.79186 11.1985 4.65043 11.1871 4.51176 11.2085L0.913505 11.6874C0.479312 11.7293 0.08648 11.4311 0.00783301 11.0019C-0.0164139 10.8294 0.0159922 10.6536 0.10088 10.5008L1.92662 7.36352C2.05624 7.13434 2.06494 6.85652 1.94998 6.62015L0.350863 3.33093C0.162218 2.93729 0.328213 2.46429 0.722115 2.27496C0.727683 2.27235 0.732324 2.27018 0.737645 2.26826C0.896786 2.19495 1.07554 2.17355 1.24675 2.20885L4.83834 2.94794C5.0966 3.00643 5.36688 2.93034 5.55706 2.74637L8.16446 0.193097C8.39603 -0.00514761 8.72008 -0.0554833 8.99999 0.0641488C8.92087 0.264616 4.97539 11.1047 4.92528 11.2424Z" fill="#F9B023"/>
</svg>
